<svg width="32" height="32" viewBox="0 0 32 32" fill="none" xmlns="http://www.w3.org/2000/svg">
  <defs>
    <linearGradient id="grad" x1="0%" y1="0%" x2="100%" y2="100%">
      <stop offset="0%" style="stop-color:#34d399"/>
      <stop offset="100%" style="stop-color:#22d3ee"/>
    </linearGradient>
  </defs>
  <rect width="32" height="32" rx="6" fill="url(#grad)"/>
  <g transform="translate(4 2)" fill="#18181b" stroke="#18181b">
    <!-- Antennae -->
    <path d="M9.5 5 Q6.5 2 4 1" fill="none" stroke-width="1.5" stroke-linecap="round"/>
    <path d="M14.5 5 Q17.5 2 20 1" fill="none" stroke-width="1.5" stroke-linecap="round"/>
    <!-- Left claw -->
    <path d="M7 7 C4 4 -0.5 4 0 8 C0.5 11.5 4.5 10.5 6.5 9 Z" stroke="none"/>
    <!-- Right claw -->
    <path d="M17 7 C20 4 24.5 4 24 8 C23.5 11.5 19.5 10.5 17.5 9 Z" stroke="none"/>
    <!-- Head -->
    <path d="M8 4.5 Q12 2 16 4.5 L16 7 L8 7 Z" stroke="none"/>
    <!-- Body segments -->
    <rect x="7.5" y="8" width="9" height="3" rx="0.3" stroke="none"/>
    <rect x="8" y="12" width="8" height="2.5" rx="0.3" stroke="none"/>
    <rect x="8.5" y="15.5" width="7" height="2.5" rx="0.3" stroke="none"/>
    <rect x="9" y="19" width="6" height="2" rx="0.3" stroke="none"/>
    <!-- Tail fan -->
    <path d="M9 22 L5.5 26 L8.5 24.5 L11 26.5 L12 27 L13 26.5 L15.5 24.5 L18.5 26 L15 22 Z" stroke="none"/>
    <!-- Legs -->
    <path d="M7.5 10 L4.5 12" fill="none" stroke-width="1.2" stroke-linecap="round"/>
    <path d="M16.5 10 L19.5 12" fill="none" stroke-width="1.2" stroke-linecap="round"/>
    <path d="M8 14 L5.5 16" fill="none" stroke-width="1" stroke-linecap="round"/>
    <path d="M16 14 L18.5 16" fill="none" stroke-width="1" stroke-linecap="round"/>
  </g>
</svg>
