<svg width="64" height="64" viewBox="0 0 64 64" fill="none" xmlns="http://www.w3.org/2000/svg">
  <defs>
    <linearGradient id="logoGradient" x1="0%" y1="0%" x2="100%" y2="100%">
      <stop offset="0%" style="stop-color:#34d399"/>
      <stop offset="100%" style="stop-color:#22d3ee"/>
    </linearGradient>
  </defs>
  <rect width="64" height="64" rx="12" fill="url(#logoGradient)"/>
  <g transform="translate(8 4)" fill="#18181b" stroke="#18181b">
    <!-- Antennae -->
    <path d="M19 10 Q13 4 8 2" fill="none" stroke-width="2.5" stroke-linecap="round"/>
    <path d="M29 10 Q35 4 40 2" fill="none" stroke-width="2.5" stroke-linecap="round"/>
    <!-- Left claw (koru spiral) -->
    <path d="M14 14 C8 8 -1 8 0 16 C1 23 9 21 13 18 Z" stroke="none"/>
    <!-- Right claw (koru spiral) -->
    <path d="M34 14 C40 8 49 8 48 16 C47 23 39 21 35 18 Z" stroke="none"/>
    <!-- Head -->
    <path d="M16 9 Q24 4 32 9 L32 14 L16 14 Z" stroke="none"/>
    <!-- Body segment 1 — shark teeth bottom -->
    <path d="M15 16 L33 16 L33 21 L30.5 18.5 L28 21 L25.5 18.5 L23 21 L20.5 18.5 L18 21 L15 21 Z" stroke="none"/>
    <!-- Body segment 2 — shark teeth bottom -->
    <path d="M16 23.5 L32 23.5 L32 28 L29.5 26 L27 28 L24.5 26 L22 28 L19.5 26 L16 28 Z" stroke="none"/>
    <!-- Body segment 3 — shark teeth bottom -->
    <path d="M17 30.5 L31 30.5 L31 34.5 L29 32.5 L27 34.5 L24.5 32.5 L22 34.5 L20 32.5 L17 34.5 Z" stroke="none"/>
    <!-- Body segment 4 -->
    <rect x="18" y="37" width="12" height="3.5" rx="0.5" stroke="none"/>
    <!-- Tail fan -->
    <path d="M18 42 L11 50 L17 47.5 L21.5 51.5 L24 53 L26.5 51.5 L31 47.5 L37 50 L30 42 Z" stroke="none"/>
    <!-- Legs -->
    <path d="M15 19 L9 23" fill="none" stroke-width="2" stroke-linecap="round"/>
    <path d="M33 19 L39 23" fill="none" stroke-width="2" stroke-linecap="round"/>
    <path d="M16 26 L11 29.5" fill="none" stroke-width="1.8" stroke-linecap="round"/>
    <path d="M32 26 L37 29.5" fill="none" stroke-width="1.8" stroke-linecap="round"/>
    <path d="M17 33 L13 36" fill="none" stroke-width="1.5" stroke-linecap="round"/>
    <path d="M31 33 L35 36" fill="none" stroke-width="1.5" stroke-linecap="round"/>
  </g>
</svg>
